<svg width="1909" height="329" viewBox="0 0 1909 329" fill="none" xmlns="http://www.w3.org/2000/svg">
<path d="M433 329H634C677 329 709 297 709 254V75C709 32 677 0 634 0H433C422 0 411 6 406 15L375 69H274V119H386C397 119 408 113 413 104L444 50H624C644 50 659 65 659 85V244C659 264 644 279 624 279H445L390 184C385 175 374 169 363 169H274V219H352L406 313C411 322 422 329 433 329ZM572 174C594 174 610 157 610 135C610 113 594 97 572 97C550 97 533 113 533 135C533 157 550 174 572 174Z" fill="black"/>
<path d="M224 219H72L48 169H224V219Z" fill="black"/>
<path d="M224 119H24L0 69H224V119Z" fill="black"/>
<path d="M889.888 243V84.8H917.008V243H889.888ZM1004.67 84.8C1050.78 84.8 1082.87 118.248 1082.87 163.9C1082.87 209.552 1050.78 243 1004.67 243H953.597V84.8H1004.67ZM1005.13 217.236C1035.86 217.236 1055.3 192.602 1055.3 163.9C1055.3 134.972 1035.86 110.564 1005.13 110.564H980.717V217.236H1005.13ZM1158.27 243L1219.74 84.8H1247.31L1308.79 243H1281.44L1266.98 205.484H1200.08L1185.62 243H1158.27ZM1233.53 118.926L1209.8 180.624H1257.26L1233.53 118.926ZM1362.97 245.712C1342.4 245.712 1323.64 231.022 1323.64 205.258V135.876H1350.76V197.8C1350.76 213.62 1358.22 220.4 1372.01 220.4C1386.02 220.4 1393.25 207.292 1393.25 207.292V135.876H1420.37V243H1395.06V227.406C1395.06 227.406 1384.89 245.712 1362.97 245.712ZM1440.68 226.276L1455.82 206.614C1455.82 206.614 1470.06 221.982 1488.14 221.982C1499.21 221.982 1508.48 218.818 1508.48 212.264C1508.48 205.258 1503.5 203.902 1487.23 200.512C1465.99 195.992 1447.46 186.952 1447.46 166.612C1447.46 149.888 1464.18 133.164 1493.56 133.164C1517.74 133.164 1533.79 146.272 1533.79 146.272L1520.23 166.16C1520.23 166.16 1508.02 156.894 1493.56 156.894C1483.39 156.894 1474.12 160.51 1474.12 167.064C1474.12 173.618 1481.36 175.2 1499.44 179.042C1520.68 183.562 1535.82 190.568 1535.82 212.716C1535.82 231.022 1516.39 245.712 1489.04 245.712C1457.63 245.712 1440.68 226.276 1440.68 226.276ZM1548.12 160.284V135.876H1569.13V104.01H1596.25V135.876H1628.57V160.284H1596.25V203.45C1596.25 216.558 1603.03 220.4 1610.27 220.4C1616.37 220.4 1621.57 216.558 1621.57 216.558L1631.51 238.706C1631.51 238.706 1621.34 245.712 1605.75 245.712C1584.95 245.712 1569.13 230.57 1569.13 207.744V160.284H1548.12ZM1705.64 133.164C1715.36 133.164 1724.17 136.554 1724.17 136.554L1714.68 160.962C1714.68 160.962 1709.71 158.476 1701.8 158.476C1685.3 158.476 1677.84 172.94 1677.84 172.94V243H1650.72V135.876H1676.49V151.47C1676.49 151.47 1685.75 133.164 1705.64 133.164ZM1742.42 243V135.876H1769.54V243H1742.42ZM1738.12 101.298C1738.12 91.354 1746.03 83.444 1755.98 83.444C1765.92 83.444 1773.83 91.354 1773.83 101.298C1773.83 111.242 1765.92 119.152 1755.98 119.152C1746.03 119.152 1738.12 111.242 1738.12 101.298ZM1843.06 223.112C1859.33 223.112 1867.92 210.682 1867.92 210.682V199.608C1867.92 199.608 1858.2 194.184 1843.51 194.184C1835.15 194.184 1823.62 197.8 1823.62 209.326C1823.62 220.626 1834.7 223.112 1843.06 223.112ZM1846.22 133.164C1876.96 133.164 1895.04 148.758 1895.04 173.166V243H1869.95V229.44C1869.95 229.44 1858.88 245.712 1834.7 245.712C1814.58 245.712 1796.05 232.604 1796.05 209.778C1796.05 189.212 1814.81 174.296 1838.09 174.296C1857.75 174.296 1867.92 181.98 1867.92 181.98V175.878C1867.92 161.866 1854.36 157.346 1844.87 157.346C1829.27 157.346 1812.77 165.256 1812.77 165.256L1803.96 142.882C1803.96 142.882 1823.85 133.164 1846.22 133.164Z" fill="black"/>
</svg>
