<svg width="709" height="329" viewBox="0 0 709 329" fill="none" xmlns="http://www.w3.org/2000/svg">
<path d="M433 329H634C677 329 709 297 709 254V75C709 32 677 0 634 0H433C422 0 411 6 406 15L375 69H274V119H386C397 119 408 113 413 104L444 50H624C644 50 659 65 659 85V244C659 264 644 279 624 279H445L390 184C385 175 374 169 363 169H274V219H352L406 313C411 322 422 329 433 329ZM572 174C594 174 610 157 610 135C610 113 594 97 572 97C550 97 533 113 533 135C533 157 550 174 572 174Z" fill="white"/>
<path d="M224 219H72L48 169H224V219Z" fill="white"/>
<path d="M224 119H24L0 69H224V119Z" fill="white"/>
</svg>
